<svg width="46" height="47" viewBox="0 0 46 47" fill="none" xmlns="http://www.w3.org/2000/svg">
<g clip-path="url(#clip0_71_261)">
<g clip-path="url(#clip1_71_261)">
<g clip-path="url(#clip2_71_261)">
<path d="M42.5902 2.96029H27.9034C27.5311 2.96029 27.2294 3.26209 27.2294 3.6343C27.2294 4.0065 27.5311 4.3083 27.9034 4.3083H42.5901C43.7049 4.3083 44.612 5.21531 44.612 6.33021V29.9187H41.3808L41.3807 9.21456C41.3807 8.09966 40.4736 7.19265 39.3588 7.19265H6.64122C5.52631 7.19265 4.6193 8.09966 4.6193 9.21456V29.9187H1.38795V6.33012C1.38795 5.21522 2.29505 4.30821 3.40987 4.30821H25.2075C25.5798 4.30821 25.8815 4.00641 25.8815 3.63421C25.8815 3.262 25.5798 2.96021 25.2075 2.96021H3.40987C1.55172 2.96029 0.0400391 4.47198 0.0400391 6.33012V33.5815C0.0400391 35.4396 1.55172 36.9513 3.40987 36.9513H18.229L17.5497 42.1318H15.1549C14.7826 42.1318 14.4809 42.4336 14.4809 42.8058C14.4809 43.178 14.7826 43.4798 15.1549 43.4798H30.8451C31.2174 43.4798 31.5191 43.178 31.5191 42.8058C31.5191 42.4336 31.2174 42.1318 30.8451 42.1318H28.4503L27.7711 36.9513H34.9128C35.2851 36.9513 35.5868 36.6495 35.5868 36.2773C35.5868 35.9051 35.2851 35.6033 34.9128 35.6033H3.40987C2.29505 35.6033 1.38795 34.6963 1.38795 33.5814V31.2665H44.612V33.5814C44.612 34.6963 43.7049 35.6033 42.5901 35.6033H37.6086C37.2363 35.6033 36.9346 35.9051 36.9346 36.2773C36.9346 36.6495 37.2363 36.9513 37.6086 36.9513H42.5901C44.4483 36.9513 45.9599 35.4396 45.9599 33.5815V6.33012C45.96 4.47198 44.4484 2.96029 42.5902 2.96029ZM27.0909 42.1318H18.9093L19.5886 36.9513H26.4115L27.0909 42.1318ZM5.96722 9.21447C5.96722 8.84281 6.26955 8.54047 6.64122 8.54047H39.3589C39.7305 8.54047 40.0329 8.84281 40.0329 9.21447V12.5316H5.96722V9.21447ZM5.96722 13.8796H40.0329V29.9187H36.7562V26.9142C36.7562 26.542 36.4545 26.2402 36.0822 26.2402H24.6134C24.2411 26.2402 23.9394 26.542 23.9394 26.9142V29.9187H22.0606V26.9142C22.0606 26.542 21.7589 26.2402 21.3866 26.2402H9.91786C9.54557 26.2402 9.24386 26.542 9.24386 26.9142V29.9187H5.96722V13.8796ZM35.4082 29.9186H25.2874V27.5881H35.4082V29.9186ZM20.7127 29.9186H10.5919V27.5881H20.7127V29.9186Z" fill="black"/>
<path d="M8.53786 9.44891C7.96709 9.44891 7.50269 9.91332 7.50269 10.4842C7.50269 11.055 7.96709 11.5193 8.53786 11.5193C9.10863 11.5193 9.57303 11.0549 9.57303 10.4842C9.57312 9.91341 9.10872 9.44891 8.53786 9.44891Z" fill="black"/>
<path d="M11.8601 9.44891C11.2894 9.44891 10.825 9.91332 10.825 10.4842C10.825 11.055 11.2894 11.5193 11.8601 11.5193C12.4309 11.5193 12.8953 11.0549 12.8953 10.4842C12.8953 9.91341 12.4309 9.44891 11.8601 9.44891Z" fill="black"/>
<path d="M15.1821 9.44891C14.6114 9.44891 14.147 9.91332 14.147 10.4842C14.147 11.055 14.6114 11.5193 15.1821 11.5193C15.753 11.5193 16.2174 11.0549 16.2174 10.4842C16.2174 9.91341 15.753 9.44891 15.1821 9.44891Z" fill="black"/>
<path d="M9.9179 24.5951H14.821C15.1933 24.5951 15.495 24.2933 15.495 23.9211C15.495 23.5489 15.1933 23.2471 14.821 23.2471H10.5918V17.3333H35.4068V23.2471H17.5169C17.1446 23.2471 16.8429 23.5489 16.8429 23.9211C16.8429 24.2933 17.1446 24.5951 17.5169 24.5951H36.0807C36.453 24.5951 36.7547 24.2933 36.7547 23.9211V16.6594C36.7547 16.2871 36.453 15.9854 36.0807 15.9854H9.9179C9.54561 15.9854 9.2439 16.2871 9.2439 16.6594V23.9212C9.2439 24.2934 9.54561 24.5951 9.9179 24.5951Z" fill="black"/>
</g>
</g>
</g>
<defs>
<clipPath id="clip0_71_261">
<rect width="45.92" height="45.92" fill="white" transform="translate(0.0400391 0.259979)"/>
</clipPath>
<clipPath id="clip1_71_261">
<rect width="45.92" height="45.92" fill="white" transform="translate(0.0400391 0.259979)"/>
</clipPath>
<clipPath id="clip2_71_261">
<rect width="45.92" height="45.92" fill="white" transform="translate(0.0400391 0.259979)"/>
</clipPath>
</defs>
</svg>
