<svg width="28" height="27" viewBox="0 0 28 27" fill="none" xmlns="http://www.w3.org/2000/svg">
<g clip-path="url(#clip0_71_237)">
<path d="M0.75 26.6899L3.029 19.8534C1.87259 17.9084 1.2069 15.6385 1.2069 13.2115C1.2069 6.01994 7.0369 0.189941 14.2284 0.189941C21.42 0.189941 27.25 6.01994 27.25 13.2115C27.25 20.403 21.42 26.233 14.2284 26.233C12.0404 26.233 9.97977 25.6907 8.17 24.7376L0.75 26.6899Z" fill="#2CB742"/>
<path d="M22.536 17.5452C21.9348 16.4089 19.7174 15.1095 19.7174 15.1095C19.2158 14.8235 18.6104 14.7915 18.3244 15.3014C18.3244 15.3014 17.6038 16.1654 17.4206 16.2897C16.5836 16.8567 15.8082 16.8347 15.0256 16.0521L13.2067 14.2332L11.3878 12.4143C10.6051 11.6316 10.5832 10.8563 11.1502 10.0192C11.2745 9.836 12.1384 9.11547 12.1384 9.11547C12.6483 8.829 12.6164 8.22407 12.3303 7.7224C12.3303 7.7224 11.0309 5.50508 9.89462 4.9038C9.41123 4.64794 8.81772 4.73749 8.43119 5.12403L7.62796 5.92725C5.07985 8.47536 6.33449 11.352 8.8826 13.9001L11.2114 16.2289L13.5402 18.5577C16.0883 21.1058 18.9649 22.3604 21.513 19.8123L22.3163 19.0091C22.7028 18.6217 22.7919 18.0282 22.536 17.5452Z" fill="white"/>
</g>
<defs>
<clipPath id="clip0_71_237">
<rect width="26.5" height="26.5" fill="white" transform="translate(0.75 0.189941)"/>
</clipPath>
</defs>
</svg>
