<svg width="46" height="47" viewBox="0 0 46 47" fill="none" xmlns="http://www.w3.org/2000/svg">
<g clip-path="url(#clip0_71_278)">
<g clip-path="url(#clip1_71_278)">
<g clip-path="url(#clip2_71_278)">
<path d="M44.6354 41.3892H38.0039V40.5741C38.0039 39.7446 37.3291 39.0698 36.4997 39.0698H35.882L35.6864 37.1483H42.9594C43.9806 37.1483 44.8113 36.3175 44.8113 35.2962V24.8859C44.8113 23.8647 43.9806 23.0339 42.9594 23.0339H24.1481C23.1269 23.0339 22.296 23.8647 22.296 24.8859V30.5147C20.8044 30.0257 18.7455 29.7009 17.5313 29.538H17.5312C17.4288 29.5243 17.3521 29.4364 17.3524 29.3335L17.3607 27.3648C17.5047 27.2594 17.6466 27.1481 17.7857 27.0294C18.8372 26.1317 19.517 24.8486 19.704 23.44C20.0514 23.3889 20.3723 23.2291 20.6263 22.9772C20.9407 22.6654 21.115 22.2497 21.1168 21.8069L21.1214 20.7151C21.1233 20.2453 20.9287 19.8077 20.5955 19.4972L20.61 16.078C20.6157 14.7164 19.5155 13.6033 18.1554 13.5918C17.8106 12.6131 16.882 11.9528 15.8441 11.9484L11.5645 11.9304C11.5575 11.9304 11.5509 11.9304 11.5439 11.9304C8.89445 11.9304 6.73316 14.0804 6.72195 16.7323L6.71056 19.4388C6.37477 19.7464 6.17647 20.1824 6.17441 20.6521L6.16984 21.744C6.16634 22.5724 6.77424 23.2636 7.56878 23.3888C7.74385 24.7988 8.41292 26.0877 9.45679 26.9943C9.59482 27.1142 9.73581 27.2267 9.87895 27.3333L9.8707 29.3021C9.87025 29.4049 9.79267 29.4922 9.69025 29.5051C8.24404 29.6866 5.59951 30.0872 4.13608 30.7313C2.35067 31.5172 1.19173 33.2855 1.18348 35.2363L1.17926 36.2303C1.17765 36.6017 1.47756 36.9041 1.84905 36.9058H1.85192C2.22206 36.9058 2.52296 36.6065 2.52449 36.236L2.5287 35.2421C2.53471 33.8219 3.3784 32.5347 4.67806 31.9625C5.23709 31.7164 6.02759 31.5061 6.84115 31.3341L9.14235 34.3503C9.70209 35.084 10.6468 35.3122 11.4409 35.0178L11.9831 35.8122L11.1223 41.3893H6.33468L6.34455 39.0511C6.34616 38.6797 6.04625 38.3773 5.67476 38.3756C5.67377 38.3756 5.67288 38.3756 5.67189 38.3756C5.30175 38.3756 5.00085 38.6749 4.99932 39.0454L4.98946 41.3893H2.50278L2.51121 39.3889C2.51283 39.0175 2.21291 38.7151 1.84143 38.7135C1.84044 38.7135 1.83954 38.7135 1.83856 38.7135C1.46842 38.7135 1.16752 39.0128 1.16599 39.3833L1.15747 41.4023C0.537819 41.4871 0.0583496 42.0185 0.0583496 42.6609V44.9083C0.0583496 45.6095 0.628852 46.18 1.33003 46.18H44.6354C45.3366 46.18 45.907 45.6095 45.907 44.9083V42.6609C45.907 41.9597 45.3366 41.3892 44.6354 41.3892ZM36.6586 40.5741V41.3892H30.4486V40.5741C30.4486 40.4864 30.5199 40.4151 30.6075 40.4151H36.4996C36.5874 40.415 36.6586 40.4864 36.6586 40.5741ZM31.421 37.1483L31.2253 39.0698H30.6075C29.7781 39.0698 29.1034 39.7446 29.1034 40.5741V41.3892H25.9634L25.983 37.1483H31.421ZM32.5775 39.0698L32.8346 36.5449C32.8346 36.5446 32.8347 36.5443 32.8347 36.544L32.9201 35.7062C32.9206 35.7015 32.9244 35.698 32.9291 35.698H34.1782C34.1828 35.698 34.1867 35.7015 34.1871 35.7062L34.2724 36.5432C34.2725 36.5441 34.2726 36.545 34.2727 36.5459L34.5297 39.07H32.5775V39.0698ZM23.6413 24.8859C23.6413 24.6066 23.8687 24.3792 24.1481 24.3792H42.9593C43.2387 24.3792 43.466 24.6066 43.466 24.8859V35.2962C43.466 35.5756 43.2387 35.803 42.9593 35.803H35.5493L35.5255 35.5698C35.4549 34.8759 34.8757 34.3526 34.1783 34.3526H32.9292C32.2317 34.3526 31.6525 34.8759 31.5819 35.5698L31.5581 35.803H24.1481C23.8686 35.803 23.6413 35.5756 23.6413 35.2962V24.8859ZM24.1481 37.1483H24.6377L24.6182 41.3892H22.1321L22.1417 39.1176C22.1434 38.7462 21.8434 38.4438 21.472 38.4422C21.471 38.4422 21.4701 38.4422 21.4691 38.4422C21.0989 38.4422 20.798 38.7415 20.7965 39.112L20.7869 41.3892H15.9959L15.1856 35.8284L15.7278 35.0268C16.5391 35.3409 17.4852 35.1021 18.0433 34.3829L20.365 31.3911C21.0727 31.5469 21.7621 31.7318 22.2962 31.9426V35.2962C22.296 36.3175 23.1269 37.1483 24.1481 37.1483ZM13.0473 34.9848L12.5556 34.2645L13.5952 33.4449L14.6202 34.263L14.1288 34.9894L13.0473 34.9848ZM17.5903 30.904C17.9393 30.9527 18.3898 31.0201 18.8844 31.1046L16.9803 33.5583C16.7528 33.8514 16.3284 33.9052 16.035 33.6709L14.763 32.6556L17.5903 30.904ZM8.06726 16.7379C8.07534 14.8257 9.63357 13.2756 11.5441 13.2756H11.559L15.8385 13.2936C16.3095 13.2956 16.731 13.5954 16.8871 14.0397C17.075 14.5739 17.5781 14.9345 18.139 14.9369C18.7625 14.9395 19.2675 15.4489 19.2649 16.0724L19.2518 19.1839C18.8073 19.2202 18.4537 19.2982 18.1759 19.3901L18.1829 17.7399C18.1881 16.5099 17.1966 15.5089 15.9659 15.5038L15.9469 15.5037C15.6155 15.503 15.2874 15.5525 14.9709 15.6529C14.1385 15.9168 13.1863 15.9091 12.3679 15.6419C12.0521 15.5389 11.7241 15.4859 11.3933 15.4845L11.3744 15.4844C11.3711 15.4844 11.3679 15.4844 11.3646 15.4844C10.1555 15.4844 9.14351 16.4588 9.13831 17.7018L9.13051 19.6023L8.97499 19.611C8.67113 19.3884 8.33991 19.2643 8.05704 19.1953L8.06726 16.7379ZM8.86889 22.7263C8.86261 22.3603 8.56494 22.0667 8.19901 22.0652L7.82663 22.0636C7.65416 22.0629 7.51434 21.9219 7.51515 21.7495L7.51972 20.6577C7.51999 20.5825 7.546 20.5208 7.58232 20.4729C7.75865 20.4991 8.0235 20.5645 8.21946 20.7271C8.41848 20.8923 8.67041 20.9745 8.92817 20.9608L9.50747 20.9287C10.0473 20.8987 10.472 20.4516 10.4743 19.9109L10.4834 17.7073C10.4854 17.209 10.8959 16.8252 11.3682 16.8297L11.3873 16.8297C11.5783 16.8306 11.7676 16.8611 11.9503 16.9208C13.0557 17.2815 14.2927 17.2792 15.3774 16.9352C15.5579 16.8779 15.7448 16.8489 15.9328 16.8489H15.9408L15.9598 16.849C16.4467 16.851 16.8396 17.247 16.8375 17.7342L16.827 20.2062C16.8256 20.5499 17.029 20.8583 17.3453 20.9921C17.4528 21.0376 17.5655 21.0597 17.6774 21.0597C17.8954 21.0597 18.1095 20.9756 18.2721 20.8164C18.4427 20.6496 19.1236 20.5301 19.7048 20.5109C19.7463 20.5608 19.7766 20.6272 19.7762 20.7094L19.7717 21.8012C19.7712 21.914 19.7135 21.9879 19.6791 22.0219C19.6449 22.0559 19.5709 22.1126 19.459 22.1126C19.4586 22.1126 19.458 22.1126 19.4576 22.1126L19.0849 22.111C18.7149 22.1092 18.4191 22.4006 18.4097 22.7663C18.3769 24.0408 17.8312 25.2217 16.9122 26.0061C14.9599 27.6729 12.2952 27.6775 10.3389 25.9783C9.42666 25.1864 8.89086 24.001 8.86889 22.7263ZM16.0122 28.1266L16.0072 29.3278C16.006 29.6296 16.0933 29.9137 16.2447 30.1551L13.6011 31.793L10.9714 30.1328C11.1249 29.8927 11.2147 29.6094 11.216 29.3076L11.221 28.1063C12.721 28.7424 14.4211 28.7855 16.0122 28.1266ZM10.212 33.5343L8.32422 31.06C8.81947 30.9797 9.27042 30.9162 9.61967 30.8703L12.4342 32.6472L11.1574 33.6538C10.865 33.8842 10.4395 33.8325 10.212 33.5343ZM13.2642 36.331L13.8996 36.3337L14.6362 41.3892H12.4834L13.2642 36.331ZM44.5618 44.8348H1.40357V42.7345H44.5618V44.8348Z" fill="black"/>
<path d="M33.5538 31.863C34.9563 31.863 36.0973 30.722 36.0973 29.3194C36.0973 27.9169 34.9563 26.7759 33.5538 26.7759C32.1513 26.7759 31.0103 27.9169 31.0103 29.3194C31.0103 30.722 32.1513 31.863 33.5538 31.863ZM33.5538 28.1211C34.2145 28.1211 34.7521 28.6587 34.7521 29.3194C34.7521 29.9802 34.2146 30.5178 33.5538 30.5178C32.893 30.5178 32.3555 29.9802 32.3555 29.3194C32.3555 28.6587 32.893 28.1211 33.5538 28.1211Z" fill="black"/>
<path d="M37.4002 4.92722C37.0287 4.92722 36.7275 5.2283 36.7275 5.59987V8.56234C36.7275 9.06504 37.1365 9.4741 37.6396 9.4741L39.251 9.47347C39.6225 9.47329 39.9235 9.17212 39.9234 8.80055C39.9233 8.42915 39.6221 8.12816 39.2507 8.12816C39.2507 8.12816 39.2505 8.12816 39.2504 8.12816L38.0728 8.12861V5.59987C38.0729 5.2283 37.7717 4.92722 37.4002 4.92722Z" fill="black"/>
<path d="M37.4003 17.3428C42.11 17.3428 45.9418 13.5111 45.9418 8.80146C45.9418 4.0917 42.11 0.259979 37.4003 0.259979C32.6905 0.259979 28.8589 4.0917 28.8589 8.80146C28.8589 13.5112 32.6905 17.3428 37.4003 17.3428ZM37.4003 1.6052C41.3682 1.6052 44.5964 4.8335 44.5964 8.80146C44.5964 12.7694 41.3682 15.9976 37.4003 15.9976C33.4323 15.9976 30.2041 12.7694 30.2041 8.80146C30.2041 4.8335 33.4323 1.6052 37.4003 1.6052Z" fill="black"/>
<path d="M37.4004 14.9887C40.812 14.9887 43.5877 12.2132 43.5877 8.80156C43.5877 5.38994 40.8121 2.6142 37.4004 2.6142C34.6094 2.6142 32.2483 4.46248 31.478 7.00557C31.3703 7.36109 31.5712 7.73661 31.9268 7.84423C32.2823 7.95177 32.6578 7.75096 32.7655 7.39544C33.3783 5.37236 35.2843 3.95942 37.4004 3.95942C40.0703 3.95942 42.2423 6.13156 42.2423 8.80147C42.2423 11.4713 40.0702 13.6434 37.4004 13.6434C35.2673 13.6434 33.4089 12.2763 32.776 10.2416C32.6657 9.88687 32.2888 9.68848 31.9339 9.79915C31.5792 9.90938 31.3811 10.2864 31.4914 10.6411C32.3003 13.2415 34.675 14.9887 37.4004 14.9887Z" fill="black"/>
</g>
</g>
</g>
<defs>
<clipPath id="clip0_71_278">
<rect width="45.92" height="45.92" fill="white" transform="translate(0.0400391 0.259979)"/>
</clipPath>
<clipPath id="clip1_71_278">
<rect width="45.92" height="45.92" fill="white" transform="translate(0.0400391 0.259979)"/>
</clipPath>
<clipPath id="clip2_71_278">
<rect width="45.92" height="45.92" fill="white" transform="translate(0.0400391 0.259979)"/>
</clipPath>
</defs>
</svg>
